# xmcd
#
# Track frame offsets:
#	150
#	17653
#	28263
#	55212
#	68883
#	83944
#	100854
#	114386
#	129086
#	147986
#	163376
#	174950
#
# Disc length: 2590 seconds
# Revision: 2
# Processed by: cddbd v1.5.2PL0 Copyright (c) Steve Scherf et al.
# Submitted via: dBpowerAMP V12.0
#
DISCID=9e0a1c0c
DTITLE=HowellDevine - Delta Grooves
DYEAR=2012
DGENRE=Blues
TTITLE0=Write Me a Few Lines
TTITLE1=Come On In My Kitchen
TTITLE2=Train
TTITLE3=When You've Got a Good Friend
TTITLE4=Devil Got My Woman
TTITLE5=Mighty Long Time
TTITLE6=Honey Bee
TTITLE7=Boat's Up the River
TTITLE8=Long-Haired Doney
TTITLE9=Harmonica Wobble
TTITLE10=You Got Me Runnin'
TTITLE11=Poor Boy
EXTD=
EXTT0=
EXTT1=
EXTT2=
EXTT3=
EXTT4=
EXTT5=
EXTT6=
EXTT7=
EXTT8=
EXTT9=
EXTT10=
EXTT11=
PLAYORDER=
